<?xml version="1.0" encoding="UTF-8"?>
<svg id="Layer_1" data-name="Layer 1" xmlns="http://www.w3.org/2000/svg" viewBox="0 0 60 60">
  <defs>
    <style>
      .cls-1 {
        fill: #114774;
        stroke-width: 0px;
      }
    </style>
  </defs>
  <path class="cls-1" d="M24.65,53.05l-.18.86.17-.86c-.48-.09-.94.22-1.03.69-.09.48.22.94.69,1.03,0,0,.01,0,.02,0,.06.01.11.02.17.02.41,0,.78-.29.86-.71.09-.48-.22-.94-.7-1.03Z"/>
  <path class="cls-1" d="M31.37,53.33l.09.87-.09-.87c-.48.05-.83.48-.78.96.05.45.43.79.87.79.03,0,.06,0,.09,0h.02c.48-.06.82-.49.77-.97-.05-.48-.49-.83-.97-.78Z"/>
  <path class="cls-1" d="M28.01,53.45s-.01,0-.01,0c-.48-.02-.89.35-.91.84-.02.48.36.9.84.92.01,0,.03,0,.04,0,.47,0,.86-.37.88-.84.02-.48-.35-.9-.84-.92Z"/>
  <path class="cls-1" d="M21.4,52.16h-.01c-.46-.17-.95.07-1.12.53-.16.46.08.96.54,1.13.1.04.2.05.3.05.36,0,.7-.22.83-.58.16-.46-.07-.96-.53-1.12Z"/>
  <path class="cls-1" d="M34.69,52.72l.22.85-.22-.85c-.47.12-.75.6-.63,1.07.1.4.46.66.85.66.07,0,.15,0,.22-.03,0,0,.02,0,.02,0,.47-.13.74-.61.61-1.07-.12-.47-.61-.74-1.07-.62Z"/>
  <path class="cls-1" d="M37.87,51.61l.35.81-.35-.81c-.44.19-.65.71-.46,1.16.14.33.47.53.81.53.12,0,.24-.02.35-.07,0,0,.02,0,.02,0,.44-.2.64-.72.44-1.16-.2-.44-.72-.64-1.16-.45Z"/>
  <path class="cls-1" d="M18.05,11.55c.14,0,.28-.03.42-.1.43-.23.59-.76.36-1.19-.23-.43-.76-.59-1.19-.36h-.01c-.43.23-.59.76-.36,1.19.16.3.46.46.78.46Z"/>
  <path class="cls-1" d="M7.88,21.36c.13.07.27.1.41.1.32,0,.62-.17.78-.47l.02-.03c.21-.44.03-.96-.4-1.18-.43-.21-.96-.04-1.17.39-.22.43-.06.96.37,1.19Z"/>
  <path class="cls-1" d="M6.64,24.67c.09.03.19.05.28.05.37,0,.71-.23.83-.6v-.03c.15-.46-.11-.96-.57-1.1-.46-.14-.95.11-1.1.57-.15.46.09.96.55,1.11Z"/>
  <path class="cls-1" d="M9.62,18.29c.16.11.34.17.52.17.27,0,.54-.13.71-.36v-.02c.29-.39.2-.94-.19-1.22-.39-.28-.94-.19-1.23.2l.71.52-.71-.52c-.29.39-.2.94.19,1.23Z"/>
  <path class="cls-1" d="M15.06,13.44c.18,0,.37-.06.53-.18.39-.29.48-.84.19-1.23-.29-.39-.84-.48-1.23-.19l-.02.02c-.39.29-.46.85-.17,1.23.17.23.44.35.7.35Z"/>
  <path class="cls-1" d="M5.86,38c.12.38.46.62.84.62.09,0,.17-.01.26-.04.46-.14.72-.63.58-1.09-.13-.46-.61-.73-1.08-.61-.47.13-.74.61-.62,1.08,0,0,0,.03.01.04Z"/>
  <path class="cls-1" d="M12.41,15.76c.23,0,.46-.09.63-.26.34-.34.34-.9,0-1.24s-.9-.34-1.24,0h-.01c-.34.36-.33.92.01,1.26.17.17.39.25.61.25Z"/>
  <path class="cls-1" d="M6.83,34.17c-.06-.48-.5-.82-.98-.76-.48.06-.83.49-.77.98v.04c.07.44.44.75.87.75.04,0,.09,0,.13,0,.48-.07.81-.51.74-.99Z"/>
  <path class="cls-1" d="M5.73,31.65s.02,0,.03,0c.47,0,.86-.38.88-.85v-.04c0-.49-.39-.88-.88-.88s-.87.39-.88.87c-.01.48.37.89.85.9Z"/>
  <path class="cls-1" d="M5.92,28.12c.05,0,.1.01.16.01.42,0,.79-.3.86-.72,0-.01,0-.03,0-.04.07-.48-.26-.93-.74-1-.47-.07-.92.26-1,.73-.08.48.23.93.71,1.02Z"/>
  <path class="cls-1" d="M47.38,18.57c.17.25.44.38.72.38.17,0,.35-.05.5-.16.4-.27.5-.82.23-1.22l-.73.49.73-.49c-.27-.4-.82-.51-1.22-.23-.4.27-.51.82-.23,1.22v.02Z"/>
  <path class="cls-1" d="M51.87,27.41c-.48.05-.83.49-.78.97v.04c.07.44.44.75.87.75.04,0,.08,0,.13,0,.48-.07.81-.51.75-.98-.06-.48-.49-.83-.97-.77Z"/>
  <path class="cls-1" d="M50.38,24.93h0c.11.39.46.64.84.64.08,0,.17-.01.25-.04.47-.14.73-.63.6-1.09h0c-.14-.48-.63-.74-1.09-.61-.47.14-.73.63-.6,1.09Z"/>
  <path class="cls-1" d="M49.14,21.64c.15.31.47.49.79.49.13,0,.26-.03.39-.09.44-.21.62-.74.4-1.17l-.8.37.8-.37c-.21-.44-.73-.63-1.17-.42-.44.21-.63.73-.42,1.17v.03Z"/>
  <path class="cls-1" d="M45.17,15.82c.17.18.4.26.63.26s.44-.08.62-.25c.34-.34.35-.89.02-1.23-.33-.35-.88-.38-1.24-.05-.36.33-.38.89-.05,1.24l.03.03Z"/>
  <path class="cls-1" d="M52.15,31.08c-.48-.01-.89.37-.9.85-.02.48.35.89.83.92.02,0,.03,0,.05,0,.46,0,.85-.36.88-.83v-.04c.02-.48-.37-.89-.85-.9Z"/>
  <path class="cls-1" d="M39.54,11.5h.02c.13.08.27.11.41.11.31,0,.62-.17.77-.46.23-.43.07-.96-.36-1.19l-.43.77.42-.77c-.43-.23-.96-.08-1.19.35-.23.43-.08.96.35,1.19Z"/>
  <path class="cls-1" d="M42.52,13.43h.01c.16.13.35.19.53.19.27,0,.53-.12.7-.35.29-.39.22-.94-.17-1.23h0c-.38-.3-.94-.23-1.23.16s-.22.94.16,1.23Z"/>
  <path class="cls-1" d="M59.46,44.39l-4.13-4.13c-.35-.35-.82-.55-1.31-.55s-.96.19-1.31.55l-.1.1-.27-.27c-.33-.34-.59-.73-.77-1.15-.02-.06-.04-.11-.06-.16-.13-.38-.2-.78-.2-1.19v-1.17c.08.04.17.07.26.09.05,0,.1.01.15.01.42,0,.79-.3.86-.72.09-.48-.21-.94-.69-1.03-.21-.04-.42,0-.59.09-.05-1.25-.56-2.42-1.45-3.3l-4-4.01c-.9-.9-2.09-1.39-3.36-1.39-.98,0-1.92.3-2.71.85l-.42-.43v-10.05c0-1.21-.44-2.38-1.24-3.29-.57-.65-.88-1.48-.88-2.34v-.74h.06c1.02,0,1.86-.83,1.86-1.86V2.42c0-1.02-.83-1.86-1.86-1.86h-16.42c-1.02,0-1.86.83-1.86,1.86v5.85c0,1.02.83,1.86,1.86,1.86h.14v.39c0,.95-.37,1.84-1.04,2.51l-1.77,1.78c-.94.94-1.46,2.19-1.46,3.53v5.67c0,.77.18,1.5.51,2.14-1.17.07-2.25.55-3.08,1.39l-4,4.01c-.94.94-1.46,2.19-1.46,3.53v2.51c0,.95-.37,1.84-1.04,2.51l-.27.27s0,0,0,0l-.1-.1c-.35-.35-.82-.55-1.31-.55s-.96.19-1.31.55l-4.13,4.13c-.72.72-.72,1.9,0,2.63l1.41,1.41c.34.34.9.34,1.24,0,.34-.34.34-.9,0-1.24l-1.41-1.42s-.04-.1,0-.14l4.13-4.13s.1-.04.14,0l.72.72h0l9.79,9.81,1.1,1.1s.04.1,0,.14l-4.13,4.13s-.1.04-.14,0l-7.71-7.72c-.34-.34-.9-.34-1.24,0-.34.34-.34.9,0,1.24l7.71,7.72c.35.35.82.55,1.31.55s.96-.19,1.31-.55l4.13-4.13c.72-.72.72-1.9,0-2.63l-.04-.04.52-.52c.61-.61,1.42-.98,2.27-1.03,1.21-.08,2.34-.59,3.2-1.45l3.79-3.8c1.09-.29,1.94-1.18,2.18-2.29.39.19.82.29,1.28.29,1.65,0,3-1.35,3-3v-2.09c.38.17.8.27,1.24.27,1.65,0,3-1.35,3-3v-6.17l2.7,2.72c.17.17.4.26.62.26s.45-.09.62-.26c.34-.34.35-.9,0-1.24l-2.25-2.26c.44-.24.93-.37,1.44-.37.8,0,1.55.31,2.12.88l4,4.01c.61.61.94,1.42.94,2.28v2.51c0,1.42.55,2.75,1.55,3.75l.27.27-1.27,1.28-7.71,7.72-.43-.43s0,0-.01-.01l-.08-.08c-.91-.91-2.12-1.46-3.4-1.54-.78-.05-1.52-.38-2.07-.94l-2.89-2.87c-.34-.34-.9-.34-1.24,0-.34.34-.34.9,0,1.24l2.89,2.87c.86.86,1.99,1.37,3.2,1.45.86.06,1.67.42,2.27,1.03l.04.04s.05.05.07.07l.41.41-.04.05c-.72.72-.72,1.9,0,2.63l4.13,4.13c.35.35.82.55,1.31.55s.96-.19,1.31-.55l11.61-11.63c.72-.72.72-1.9,0-2.63ZM51.89,35.65h-.02s-.16-.04-.16-.04l.18.04ZM23.61,47.59c-.55.55-1.29.89-2.07.94-1.28.08-2.49.63-3.4,1.54l-.52.52-.47-.47s-.01-.01-.02-.02l-8.5-8.52.27-.27c1-1,1.55-2.33,1.55-3.75v-2.51c0-.86.34-1.67.94-2.28l4-4.01c.57-.57,1.32-.88,2.12-.88.51,0,1.01.13,1.44.37l-2.26,2.26c-.34.34-.34.9,0,1.24.17.17.4.26.62.26s.45-.09.62-.26l2.7-2.7v10.97c0,1.66,1.34,3,3,3,.47,0,.91-.11,1.3-.3.18.87.74,1.61,1.49,2.02l-2.83,2.83ZM37.58,35.21c0,.69-.56,1.24-1.24,1.24s-1.24-.56-1.24-1.24v-9.8c0-.49-.39-.88-.88-.88s-.88.39-.88.88v14.62c0,.69-.56,1.24-1.24,1.24-.61,0-1.12-.45-1.22-1.04v-14.84c0-.49-.39-.88-.88-.88-.16,0-.3.04-.43.11-.28.15-.47.44-.47.78v14.62c0,.11,0,.22.02.33v1.77c0,.69-.56,1.24-1.24,1.24s-1.24-.56-1.24-1.24v-16.74c0-.49-.39-.88-.88-.88s-.88.39-.88.88v14.64c0,.69-.56,1.24-1.24,1.24s-1.24-.56-1.24-1.24v-16.35c0-.49-.39-.88-.88-.88s-.88.39-.88.88v3.02c-.07.02-.15.06-.21.1-1.14-.43-1.95-1.53-1.95-2.81v-5.67c0-.86.34-1.67.94-2.28l1.77-1.78c1-1,1.55-2.33,1.55-3.75v-.39h1.77c.49,0,.88-.39.88-.88s-.39-.88-.88-.88h-3.66c-.06,0-.1-.05-.1-.1V2.42c0-.06.04-.1.1-.1h16.42c.06,0,.1.05.1.1v5.85c0,.06-.04.1-.1.1h-8.63c-.49,0-.88.39-.88.88s.39.88.88.88h6.81v.74c0,1.29.47,2.53,1.32,3.5.52.59.8,1.35.8,2.13v18.71ZM58.21,45.77l-11.61,11.63s-.04.03-.07.03-.05,0-.07-.03l-4.13-4.13s-.04-.1,0-.14l.66-.67h0s6.74-6.75,6.74-6.75l4.21-4.21s.1-.04.14,0l4.13,4.13s.04.1,0,.14Z"/>
  <path class="cls-1" d="M23.65,4.41c-.52,0-.94.42-.94.94s.42.94.94.94.94-.42.94-.94-.42-.94-.94-.94Z"/>
  <path class="cls-1" d="M54.3,44.47c-.52,0-.94.42-.94.94s.42.94.94.94.94-.42.94-.94-.42-.94-.94-.94Z"/>
  <path class="cls-1" d="M14.65,53.44c0-.52-.42-.94-.94-.94s-.94.42-.94.94.42.94.94.94.94-.42.94-.94Z"/>
</svg>