<?xml version="1.0" encoding="UTF-8"?>
<svg id="Layer_1" data-name="Layer 1" xmlns="http://www.w3.org/2000/svg" viewBox="0 0 60 60">
  <defs>
    <style>
      .cls-1 {
        fill: #114774;
        stroke-width: 0px;
      }
    </style>
  </defs>
  <path class="cls-1" d="M22.67,54.25h-7.5c-.25,0-.49.1-.66.27s-.27.41-.27.66.1.49.27.66.41.27.66.27h7.5c.25,0,.49-.1.66-.27.18-.18.27-.41.27-.66s-.1-.49-.27-.66c-.18-.18-.41-.27-.66-.27Z"/>
  <path class="cls-1" d="M55.01,18.62h-19.22V4.09c0-.87-.35-1.7-.96-2.32-.62-.62-1.45-.96-2.32-.96H5.33c-.87,0-1.7.35-2.32.96-.62.62-.96,1.45-.96,2.32v51.56c0,.87.35,1.7.96,2.32.62.62,1.45.96,2.32.96h27.19c.87,0,1.7-.35,2.32-.96.62-.62.96-1.45.96-2.32v-13.59h19.22c.87,0,1.7-.35,2.32-.96.62-.62.96-1.45.96-2.32v-16.88c0-.87-.35-1.7-.96-2.32-.62-.62-1.45-.96-2.32-.96ZM23.34,2.69l-.47,1.88h-7.91l-.47-1.88h8.85ZM33.92,55.66c0,.37-.15.73-.41.99-.26.26-.62.41-.99.41H5.33c-.37,0-.73-.15-.99-.41-.26-.26-.41-.62-.41-.99V4.09c0-.37.15-.73.41-.99.26-.26.62-.41.99-.41h7.24l.76,3.04c.05.2.17.38.33.51.16.13.37.2.58.2h9.38c.21,0,.41-.07.58-.2.16-.13.28-.31.33-.51l.76-3.04h7.24c.37,0,.73.15.99.41.26.26.41.62.41.99v51.56ZM35.8,32.69h2.81v3.75h-2.81v-3.75ZM56.42,38.78c0,.37-.15.73-.41.99-.26.26-.62.41-.99.41h-19.22v-1.88h3.75c.25,0,.49-.1.66-.27s.27-.41.27-.66v-5.62c0-.25-.1-.49-.27-.66-.18-.18-.41-.27-.66-.27h-3.75v-2.81h20.62v10.78ZM56.42,26.12h-20.62v-1.88h20.62v1.88ZM56.42,22.38h-20.62v-1.88h19.22c.37,0,.73.15.99.41.26.26.41.62.41.99v.47Z"/>
  <path class="cls-1" d="M53.61,30.81h-8.44c-.25,0-.49.1-.66.27-.18.18-.27.41-.27.66s.1.49.27.66.41.27.66.27h8.44c.25,0,.49-.1.66-.27s.27-.41.27-.66-.1-.49-.27-.66c-.18-.18-.41-.27-.66-.27Z"/>
  <path class="cls-1" d="M53.61,33.62h-8.44c-.25,0-.49.1-.66.27s-.27.41-.27.66.1.49.27.66.41.27.66.27h8.44c.25,0,.49-.1.66-.27s.27-.41.27-.66-.1-.49-.27-.66-.41-.27-.66-.27Z"/>
  <path class="cls-1" d="M53.61,36.44h-3.75c-.25,0-.49.1-.66.27s-.27.41-.27.66.1.49.27.66.41.27.66.27h3.75c.25,0,.49-.1.66-.27s.27-.41.27-.66-.1-.49-.27-.66-.41-.27-.66-.27Z"/>
  <path class="cls-1" d="M18.92,18.62c-2.23,0-4.4.66-6.25,1.9-1.85,1.24-3.29,2.99-4.14,5.05-.85,2.06-1.07,4.32-.64,6.5.43,2.18,1.51,4.19,3.08,5.76,1.57,1.57,3.58,2.64,5.76,3.08,2.18.43,4.44.21,6.5-.64,2.06-.85,3.81-2.29,5.05-4.14,1.24-1.85,1.9-4.03,1.9-6.25,0-2.98-1.19-5.84-3.3-7.95-2.11-2.11-4.97-3.3-7.95-3.3ZM18.92,39.25c-1.85,0-3.67-.55-5.21-1.58-1.54-1.03-2.74-2.49-3.45-4.21-.71-1.71-.9-3.6-.53-5.42.36-1.82,1.25-3.49,2.57-4.8s2.98-2.2,4.8-2.57c1.82-.36,3.7-.18,5.42.53,1.71.71,3.18,1.91,4.21,3.45,1.03,1.54,1.58,3.35,1.58,5.21,0,2.49-.99,4.87-2.75,6.63-1.76,1.76-4.14,2.75-6.63,2.75Z"/>
  <path class="cls-1" d="M23.88,26.4l-5.99,5.99-3.1-2.32c-.2-.15-.45-.21-.7-.18-.25.04-.47.17-.62.37s-.21.45-.18.7c.04.25.17.47.37.62l3.75,2.81c.18.14.4.2.63.19s.44-.11.6-.27l6.56-6.56c.18-.18.27-.41.27-.66s-.1-.49-.27-.66c-.18-.18-.41-.27-.66-.27s-.49.1-.66.27Z"/>
</svg>