<?xml version="1.0" encoding="UTF-8"?>
<svg id="Layer_1" data-name="Layer 1" xmlns="http://www.w3.org/2000/svg" viewBox="0 0 60 48.86">
  <defs>
    <style>
      .cls-1 {
        fill: #114774;
        stroke-width: 0px;
      }
    </style>
  </defs>
  <path class="cls-1" d="M59.99,12.88c0-1.03-.4-1.93-1.17-2.62l-9.12-8.2c-1.13-1.02-2.56-2.06-4.58-2.06h0c-2.01,0-3.44,1.04-4.58,2.06l-9.11,8.2c-.76.69-1.17,1.59-1.17,2.62v10.53s-6.05,0-6.05,0c1.1-2.27,1.86-5.87,1-8.56-.6-1.89-1.93-3.14-3.84-3.61-.24-.06-.5-.02-.71.11-.21.13-.37.34-.42.59-.1.45-.2.87-.29,1.27-1.13,4.96-1.27,5.6-4.38,7.63-2.2,1.44-2.35,1.62-3.72,3.62-.14.2-.29.43-.47.68-.55.8-1.26,1.16-2.29,1.17h-.08s0-.22,0-.22c0-1.17-.95-2.12-2.12-2.12H2.12c-1.17,0-2.12.95-2.12,2.12v20.66c0,1.17.95,2.12,2.12,2.12h4.78c1.17,0,2.12-.95,2.12-2.12v-.96c.42.15.85.3,1.28.47,2.13.8,4.54,1.7,8.13,1.7h12.44c.53,0,1.04-.11,1.49-.31.45.2.94.31,1.44.31h22.68c1.94,0,3.52-1.59,3.52-3.53V12.88ZM7.14,46.74c0,.13-.11.24-.24.24H2.12c-.13,0-.24-.11-.24-.24v-20.66c0-.13.11-.24.24-.24h4.78c.13,0,.24.11.24.24v20.66ZM18.42,46.07c-3.25,0-5.39-.8-7.47-1.58-.63-.23-1.27-.47-1.94-.69v-15.62h.09c1.64-.01,2.92-.68,3.82-1.98.17-.25.33-.48.47-.68q1.26-1.84,3.2-3.11c3.74-2.45,4.02-3.66,5.18-8.78.02-.08.03-.15.05-.23.77.41,1.3,1.08,1.6,2.02.88,2.78-.51,7.05-1.6,8.31-.24.28-.3.67-.14,1,.15.33.49.55.85.55h10.72c1.04,0,1.89.85,1.89,1.89s-.85,1.89-1.89,1.89h-7.39c-.52,0-.94.42-.94.94s.42.94.94.94h8.94c1.04,0,1.89.85,1.89,1.89s-.85,1.89-1.89,1.89h-8.94c-.52,0-.94.42-.94.94s.42.94.94.94h7.96c1.04,0,1.89.85,1.89,1.89s-.85,1.89-1.89,1.89h-7.96c-.52,0-.94.42-.94.94s.42.94.94.94h5c1.04,0,1.89.85,1.89,1.89s-.85,1.89-1.89,1.89h-12.45ZM56.48,46.06h-22.35c.33-.55.51-1.2.51-1.89s-.19-1.35-.52-1.91c1.94-.15,3.48-1.78,3.48-3.76,0-.92-.33-1.76-.88-2.42,1.11-.66,1.85-1.87,1.85-3.25,0-1.54-.93-2.87-2.26-3.46.45-.62.72-1.38.72-2.21,0-2.08-1.69-3.77-3.77-3.77h-1.11v-10.53c0-.49.17-.89.54-1.22l9.11-8.2c1.25-1.12,2.21-1.58,3.32-1.58h0c1.11,0,2.07.46,3.32,1.58l9.12,8.2c.37.33.55.73.55,1.22v31.54c.01.91-.72,1.65-1.63,1.65ZM50.76,33.37c.14,1.13-.17,2.16-.88,2.99-.84.97-2.23,1.62-3.81,1.8v1.19c0,.52-.42.94-.94.94s-.94-.42-.94-.94v-1.21c-2.34-.32-4.16-1.8-4.69-3.92-.13-.5.18-1.01.68-1.14.5-.12,1.01.18,1.14.68.49,1.95,2.45,2.6,3.98,2.56,1.32-.03,2.55-.5,3.16-1.2.37-.42.51-.92.43-1.53-.17-1.44-1.38-2.27-3.9-2.68-4.01-.66-4.95-2.69-5.02-4.29-.11-2.2,1.44-4.05,3.84-4.6.13-.03.25-.05.38-.07v-1.22c0-.52.42-.94.94-.94s.94.42.94.94v1.21c1.72.25,3.41,1.25,4.26,3.26.2.48-.02,1.03-.5,1.23-.48.2-1.03-.02-1.23-.5-.81-1.94-2.78-2.44-4.37-2.08-1.2.27-2.46,1.12-2.38,2.68.02.49.1,1.97,3.46,2.53,1.24.2,5.03.83,5.46,4.31ZM45.13,12.57c1.84,0,3.34-1.5,3.34-3.34s-1.5-3.34-3.34-3.34-3.34,1.5-3.34,3.34,1.5,3.34,3.34,3.34ZM45.13,7.77c.81,0,1.46.66,1.46,1.46s-.66,1.46-1.46,1.46-1.46-.66-1.46-1.46.66-1.46,1.46-1.46Z"/>
</svg>