<?xml version="1.0" encoding="UTF-8"?>
<svg id="Layer_1" data-name="Layer 1" xmlns="http://www.w3.org/2000/svg" viewBox="0 0 60 60">
  <defs>
    <style>
      .cls-1 {
        fill: #114774;
        stroke-width: 0px;
      }
    </style>
  </defs>
  <path class="cls-1" d="M10.43,31.79h16.02c.49,0,.89-.4.89-.89v-3.56c0-.49-.4-.89-.89-.89H10.43c-.49,0-.89.4-.89.89v3.56c0,.49.4.89.89.89ZM11.32,28.23h14.24v1.78h-14.24v-1.78Z"/>
  <path class="cls-1" d="M24.66,33.57c-1.47,0-2.67,1.2-2.67,2.67s1.2,2.67,2.67,2.67,2.67-1.2,2.67-2.67-1.2-2.67-2.67-2.67ZM24.66,37.13c-.49,0-.89-.4-.89-.89s.4-.89.89-.89.89.4.89.89-.4.89-.89.89Z"/>
  <path class="cls-1" d="M18.43,33.57c-1.47,0-2.67,1.2-2.67,2.67s1.2,2.67,2.67,2.67,2.67-1.2,2.67-2.67-1.2-2.67-2.67-2.67ZM18.43,37.13c-.49,0-.89-.4-.89-.89s.4-.89.89-.89.89.4.89.89-.4.89-.89.89Z"/>
  <path class="cls-1" d="M12.21,38.91c1.47,0,2.67-1.2,2.67-2.67s-1.2-2.67-2.67-2.67-2.67,1.2-2.67,2.67,1.2,2.67,2.67,2.67ZM12.21,35.35c.49,0,.89.4.89.89s-.4.89-.89.89-.89-.4-.89-.89.4-.89.89-.89Z"/>
  <path class="cls-1" d="M24.66,39.8c-1.47,0-2.67,1.2-2.67,2.67s1.2,2.67,2.67,2.67,2.67-1.2,2.67-2.67-1.2-2.67-2.67-2.67ZM24.66,43.36c-.49,0-.89-.4-.89-.89s.4-.89.89-.89.89.4.89.89-.4.89-.89.89Z"/>
  <path class="cls-1" d="M18.43,39.8c-1.47,0-2.67,1.2-2.67,2.67s1.2,2.67,2.67,2.67,2.67-1.2,2.67-2.67-1.2-2.67-2.67-2.67ZM18.43,43.36c-.49,0-.89-.4-.89-.89s.4-.89.89-.89.89.4.89.89-.4.89-.89.89Z"/>
  <path class="cls-1" d="M12.21,45.14c1.47,0,2.67-1.2,2.67-2.67s-1.2-2.67-2.67-2.67-2.67,1.2-2.67,2.67,1.2,2.67,2.67,2.67ZM12.21,41.58c.49,0,.89.4.89.89s-.4.89-.89.89-.89-.4-.89-.89.4-.89.89-.89Z"/>
  <path class="cls-1" d="M24.66,46.03c-1.47,0-2.67,1.2-2.67,2.67s1.2,2.67,2.67,2.67,2.67-1.2,2.67-2.67-1.2-2.67-2.67-2.67ZM24.66,49.59c-.49,0-.89-.4-.89-.89s.4-.89.89-.89.89.4.89.89-.4.89-.89.89Z"/>
  <path class="cls-1" d="M18.43,46.03c-1.47,0-2.67,1.2-2.67,2.67s1.2,2.67,2.67,2.67,2.67-1.2,2.67-2.67-1.2-2.67-2.67-2.67ZM18.43,49.59c-.49,0-.89-.4-.89-.89s.4-.89.89-.89.89.4.89.89-.4.89-.89.89Z"/>
  <path class="cls-1" d="M12.21,51.37c1.47,0,2.67-1.2,2.67-2.67s-1.2-2.67-2.67-2.67-2.67,1.2-2.67,2.67,1.2,2.67,2.67,2.67ZM12.21,47.81c.49,0,.89.4.89.89s-.4.89-.89.89-.89-.4-.89-.89.4-.89.89-.89Z"/>
  <path class="cls-1" d="M38.89,14.91h-.07c-.28-2.19-1.58-4.14-3.49-5.25v-.37s-.02-.09-.03-.13c0-.06-.02-.13-.04-.19-.02-.06-.06-.1-.09-.15-.03-.05-.05-.09-.09-.13-.05-.05-.11-.09-.17-.13-.03-.02-.06-.05-.09-.07,0,0-.02,0-.03-.01,0,0-.01,0-.02,0-1.89-.88-4.11-.88-6.01,0,0,0,0,0-.01,0,0,0-.02,0-.03.01-.04.02-.07.05-.1.08-.06.04-.11.07-.16.12-.04.04-.06.09-.09.14-.03.05-.07.09-.09.15-.02.06-.03.13-.04.19,0,.04-.03.08-.03.13v.38c-1.92,1.11-3.22,3.07-3.5,5.26h-.06c-.49,0-.89.4-.89.89v2.67c0,.49.4.89.89.89h14.24c.49,0,.89-.4.89-.89v-2.67c0-.49-.4-.89-.89-.89ZM28.21,11.82v.42c0,.49.4.89.89.89s.89-.4.89-.89v-2.36c1.15-.4,2.41-.4,3.56,0v2.36c0,.49.4.89.89.89s.89-.4.89-.89v-.41c.89.8,1.49,1.89,1.69,3.08h-10.51c.21-1.19.81-2.29,1.7-3.09ZM38,17.57h-12.46v-.89h12.46v.89Z"/>
  <path class="cls-1" d="M44.24,26.47h2.67c.49,0,.89-.4.89-.89s-.4-.89-.89-.89h-2.67c-.49,0-.89.4-.89.89s.4.89.89.89Z"/>
  <path class="cls-1" d="M46.9,29.14h-3.56c-.49,0-.89.4-.89.89s.4.89.89.89h3.56c.49,0,.89-.4.89-.89s-.4-.89-.89-.89Z"/>
  <path class="cls-1" d="M46.9,33.59h-2.67c-.49,0-.89.4-.89.89s.4.89.89.89h2.67c.49,0,.89-.4.89-.89s-.4-.89-.89-.89Z"/>
  <path class="cls-1" d="M46.9,38.03h-1.78c-.49,0-.89.4-.89.89s.4.89.89.89h1.78c.49,0,.89-.4.89-.89s-.4-.89-.89-.89Z"/>
  <path class="cls-1" d="M46.9,42.48h-2.67c-.49,0-.89.4-.89.89s.4.89.89.89h2.67c.49,0,.89-.4.89-.89s-.4-.89-.89-.89Z"/>
  <path class="cls-1" d="M46.9,46.93h-3.56c-.49,0-.89.4-.89.89s.4.89.89.89h3.56c.49,0,.89-.4.89-.89s-.4-.89-.89-.89Z"/>
  <path class="cls-1" d="M54.02,8.67c0-.11-.02-.23-.07-.33-.05-.11-.11-.21-.19-.29l-6.23-6.23c-.08-.08-.18-.15-.29-.19-.11-.05-.22-.07-.34-.07h-28.47c-.49,0-.89.4-.89.89v20.45h-8.9c-1.47,0-2.67,1.2-2.67,2.67v30.25c0,1.47,1.2,2.67,2.67,2.67h19.58c1.47,0,2.67-1.2,2.67-2.67v-.89h22.24c.49,0,.89-.4.89-.89V8.68h0s0,0,0-.01ZM47.8,4.59l3.19,3.19h-3.19v-3.19ZM7.76,25.56c0-.49.4-.89.89-.89h19.58c.49,0,.89.4.89.89v26.7c0,.49-.4.89-.89.89H8.65c-.49,0-.89-.4-.89-.89v-26.7ZM28.22,56.71H8.65c-.49,0-.89-.4-.89-.89v-1.05c.28.1.58.16.89.16h19.58c.31,0,.61-.06.89-.16v1.05c0,.49-.4.89-.89.89ZM30.89,52.26v-3.55h8c.49,0,.89-.4.89-.89s-.4-.89-.89-.89h-8v-2.67h8c.49,0,.89-.4.89-.89s-.4-.89-.89-.89h-8v-2.67h8c.49,0,.89-.4.89-.89s-.4-.89-.89-.89h-8v-2.67h8c.49,0,.89-.4.89-.89s-.4-.89-.89-.89h-8v-2.67h8c.49,0,.89-.4.89-.89s-.4-.89-.89-.89h-8v-2.67h8c.49,0,.89-.4.89-.89s-.4-.89-.89-.89h-8.16c-.37-1.04-1.35-1.79-2.51-1.79h-8.9V3.33h26.69v5.34c0,.49.4.89.89.89h5.34v43.58h-21.35v-.89Z"/>
</svg>