<?xml version="1.0" encoding="UTF-8"?>
<svg id="Layer_2" data-name="Layer 2" xmlns="http://www.w3.org/2000/svg" viewBox="0 0 549.45 254.3">
  <defs>
    <style>
      .cls-1 {
        fill: #fff;
        stroke-width: 0px;
      }
    </style>
  </defs>
  <path class="cls-1" d="M57.68,144.46h38.72c.99-2.01,2.64-4.63,5.01-6.21H36.5v-29.56c0-2.53,2.14-4.6,4.78-4.6h112.79c-.66-1.3-1.39-2.51-2.2-3.6-.63-.84-1.41-1.76-2.34-2.61H41.28c-6.2,0-11.24,4.85-11.24,10.81v29.37c0,15.52,13.13,28.15,29.28,28.15h79.46c2.59-1.36,5.11-3.49,7.44-6.21h-66.71c-10.18,0-18.95-6.39-21.83-15.53h0ZM59.31,159.99c-10.26,0-18.96-6.55-21.82-15.53h13.5c1.52,6.29,5.16,11.69,10.13,15.53h-1.81Z"/>
  <path class="cls-1" d="M47.29,116.36c-1.78,0-3.23-1.39-3.23-3.11s1.45-3.11,3.23-3.11h23.36c1.78,0,3.23,1.39,3.23,3.11s-1.45,3.11-3.23,3.11h-23.36Z"/>
  <ellipse class="cls-1" cx="84.46" cy="113.25" rx="3.23" ry="3.11"/>
  <ellipse class="cls-1" cx="97.84" cy="113.25" rx="3.23" ry="3.11"/>
  <g>
    <path class="cls-1" d="M142.42,91.14c.74,0,1.48.05,2.2.16,4.07.6,7.85,2.93,10.93,6.75,3.41,4.23,5.75,9.86,6.92,16.22,9.17,3.44,18.13,6.39,27.24,6.03-1.11-25.83-15.03-46.56-35.45-49.58-1.69-.25-3.42-.38-5.13-.38-13.98,0-27.96,8.25-38.35,22.62l-1.39,1.92h21.84c3.71-2.45,7.56-3.76,11.19-3.76v.02Z"/>
    <path class="cls-1" d="M155.11,160.1c-1.16-.28-2.29-.6-3.41-.95-5.75,7.49-12.95,12.22-19.96,12.22-.74,0-1.48-.05-2.2-.16-1.2-.18-2.38-.5-3.52-.98h-24.14l.24.49c6.41,13.02,16.72,21.19,29.05,23.01,1.69.25,3.41.38,5.13.38,19.55,0,38.16-16.05,47.43-39.25-6.27,4.39-16.88,9.5-28.62,5.24h0Z"/>
  </g>
  <g>
    <path class="cls-1" d="M116.07,124.02s15.64-17.68,34.24-10.25c18.59,7.43,35.71,17.23,55,6.68,0,0-15.84,16.99-34.53,10.2-20.07-4.86-33.94-20.75-54.7-6.64h-.01Z"/>
    <path class="cls-1" d="M108.25,135.83s15.64-17.68,34.24-10.25c18.59,7.43,35.71,17.23,55,6.68,0,0-15.84,16.99-34.53,10.2-20.07-4.86-33.94-20.75-54.7-6.64h-.01Z"/>
    <path class="cls-1" d="M100.41,148.3s15.64-17.68,34.24-10.25c18.59,7.43,35.71,17.23,55,6.68,0,0-15.84,16.99-34.53,10.2-20.07-4.86-33.94-20.75-54.7-6.64h-.01Z"/>
  </g>
  <g>
    <path class="cls-1" d="M241.22,140.18c-2.57,0-4.73-.43-6.5-1.28s-3.09-2.06-3.98-3.61c-.9-1.6-1.5-3.51-1.8-5.74-.15-1.05-.22-2.14-.22-3.28,0-1.32.09-2.73.28-4.23l1.8-17.19c.25-2.35.63-4.46,1.12-6.31.49-1.85,1.18-3.54,2.07-5.08.88-1.53,1.96-2.81,3.22-3.82s2.8-1.79,4.61-2.33,3.87-.82,6.18-.82c2.73,0,5.03.34,6.88,1.03,1.85.68,3.28,1.7,4.29,3.06s1.67,2.95,1.99,4.78c.17,1.01.25,2.12.25,3.34,0,.97-.05,2.01-.16,3.12l-.32,2.9h-10.09l.35-3.38c.1-1.26.16-2.38.16-3.34v-.5c-.02-1.09-.35-1.95-.99-2.56s-1.65-.92-3.01-.92c-.88,0-1.65.16-2.29.47s-1.15.69-1.53,1.14c-.38.44-.69,1.06-.95,1.85-.25.79-.43,1.5-.54,2.14s-.21,1.48-.32,2.51l-2.37,22.37c-.08.9-.13,1.75-.13,2.52.02.61.05,1.18.09,1.7.13,1.2.53,2.13,1.21,2.81s1.69,1.01,3.01,1.01c1.98,0,3.42-.72,4.34-2.16s1.52-3.54,1.81-6.29l.5-5.02h-5.24l.69-6.47h14.67l-2.84,26.84h-6.84l-.16-4.89c-1.93,3.74-5.03,5.62-9.27,5.62h.03Z"/>
    <path class="cls-1" d="M269.61,139.45l4.7-44.6h-8.45l.82-7.7h27.13l-.79,7.7h-8.27l-4.7,44.6h-10.44Z"/>
  </g>
  <g>
    <path class="cls-1" d="M334.04,139.45l15.8-52.3h11.36l4.76,52.3h-9.68l-.76-11.67h-8.42l-3.19,11.67h-9.87,0ZM348.8,121.25h6.37l-.98-20.95-5.39,20.95h0Z"/>
    <path class="cls-1" d="M289.49,139.45l15.8-52.3h11.36l4.76,52.3h-9.68l-.76-11.67h-8.42l-3.19,11.67h-9.87,0ZM304.25,121.25h6.37l-.98-20.95-5.39,20.95h0Z"/>
    <path class="cls-1" d="M371.36,139.45l5.49-52.3h10.35l-5.49,52.3h-10.35Z"/>
    <path class="cls-1" d="M389.62,139.45l5.49-52.3h13.03c2.21,0,4.14.13,5.8.39,1.66.26,3.17.72,4.54,1.37s2.46,1.49,3.28,2.52c.84,1.05,1.43,2.38,1.77,3.97.21.97.3,2.03.28,3.19,0,.78-.04,1.59-.13,2.43-.34,3.28-1.15,5.98-2.43,8.11-1.28,2.12-3.15,3.71-5.61,4.76l5.05,25.55h-10.38l-3.98-23.66h-3.78l-2.49,23.66h-10.44,0ZM403.22,109.42h2.59c2.61,0,4.52-.6,5.74-1.8,1.22-1.2,1.98-3.15,2.27-5.87.06-.65.09-1.26.09-1.83.02-1.7-.28-3-.91-3.88-.84-1.18-2.5-1.78-4.98-1.8h-3.19l-1.61,15.17h0Z"/>
    <path class="cls-1" d="M440.75,140.15c-2.29,0-4.29-.27-5.99-.82-1.7-.55-3.07-1.33-4.1-2.35s-1.84-2.26-2.43-3.71-.93-3.07-1.01-4.86c-.02-.55-.03-1.11-.03-1.7,0-1.3.06-2.68.19-4.13l1.92-18.42c.29-2.84.8-5.3,1.51-7.4s1.73-3.93,3.04-5.5c1.31-1.58,3.02-2.76,5.11-3.56,2.09-.8,4.57-1.2,7.43-1.2s4.99.35,6.83,1.06c1.84.7,3.24,1.74,4.21,3.11s1.6,2.93,1.89,4.7c.17.97.24,2.04.22,3.22,0,.95-.05,1.96-.16,3.03l-.5,4.54h-10.12l.5-4.83c.06-.65.11-1.08.13-1.28.02-.2.05-.58.08-1.15s.04-.96.02-1.17c-.02-.21-.06-.54-.11-.99s-.14-.77-.27-.95c-.13-.18-.28-.41-.47-.69s-.42-.48-.69-.6c-.27-.12-.6-.22-.99-.32-.39-.09-.83-.14-1.31-.14-.71,0-1.35.09-1.89.27s-1.01.46-1.39.84-.69.77-.95,1.18c-.25.41-.46.95-.63,1.62-.17.67-.3,1.28-.39,1.83-.09.55-.18,1.23-.27,2.05l-2.4,23.12c-.11.93-.16,1.77-.16,2.52,0,1.39.18,2.48.54,3.28.55,1.22,1.71,1.83,3.5,1.83.69,0,1.3-.08,1.83-.25.52-.17.97-.45,1.32-.85.36-.4.65-.79.87-1.17s.41-.92.57-1.61.27-1.28.35-1.75c.07-.47.15-1.14.24-2l.54-5.02h10.13l-.44,4.38c-.25,2.42-.71,4.54-1.37,6.37s-1.61,3.48-2.84,4.95-2.85,2.59-4.87,3.36-4.41,1.15-7.16,1.15h-.03Z"/>
    <path class="cls-1" d="M476.34,140.15c-2.82,0-5.18-.38-7.1-1.15-1.91-.77-3.39-1.91-4.42-3.44-1.03-1.52-1.7-3.32-2.02-5.38-.17-1.07-.25-2.24-.25-3.5,0-1.18.07-2.44.22-3.79l2.05-19.34c.59-5.66,2.22-9.92,4.89-12.78s6.76-4.29,12.27-4.29c2.82,0,5.18.38,7.1,1.14,1.91.76,3.4,1.88,4.45,3.38,1.01,1.51,1.68,3.3,2.02,5.36.17,1.07.26,2.24.28,3.5,0,1.16-.07,2.39-.22,3.69l-2.05,19.34c-.59,5.64-2.23,9.92-4.94,12.85-2.7,2.93-6.8,4.4-12.29,4.4h.01ZM477.13,132.58c1.01,0,1.87-.18,2.57-.55.7-.37,1.25-.91,1.64-1.64s.67-1.47.85-2.22.33-1.68.46-2.78l2.56-24.32c.06-.86.09-1.67.09-2.43-.02-.38-.03-.75-.03-1.1-.04-1.05-.4-1.9-1.07-2.54s-1.67-.96-3-.96c-1.01,0-1.86.17-2.56.52-.69.35-1.23.88-1.61,1.59-.38.72-.66,1.44-.84,2.18s-.33,1.65-.46,2.74l-2.56,24.32c-.08.95-.13,1.83-.13,2.65,0,.34,0,.65.03.95.04,1.05.39,1.91,1.06,2.59.66.67,1.66,1.01,2.98,1.01h.02Z"/>
    <path class="cls-1" d="M498.8,139.45l5.49-52.3h7.29l8.96,27.6,2.9-27.6h8.68l-5.49,52.3h-6.94l-8.9-29.3-3.09,29.3h-8.9Z"/>
  </g>
  <g>
    <path class="cls-1" d="M233.13,179.95c-.79,0-1.41-.33-1.88-.97-.4-.54-.6-1.16-.6-1.85,0-.12,0-.25.02-.39.05-.47.15-.9.3-1.3.16-.4.31-.74.46-1.03.15-.28.41-.58.78-.88s.65-.53.85-.68c.2-.16.57-.36,1.12-.62.54-.26.92-.43,1.14-.53.22-.09.67-.27,1.34-.54.04-.02.07-.03.08-.04l.11-.99c.04-.38.06-.72.06-1,0-.42-.04-.75-.13-.98-.15-.39-.51-.58-1.07-.57-1,0-1.57.67-1.71,2l-.08.68-2.44-.09s.02-.12.04-.24c.02-.12.03-.21.04-.26.22-1.38.71-2.38,1.46-3.01.75-.63,1.77-.94,3.05-.94s2.24.35,2.74,1.09c.39.56.58,1.34.58,2.34,0,.3-.02.63-.06.98l-.67,6.37c-.09.8-.13,1.64-.13,2.51,0,.25,0,.5,0,.75h-2.25c-.08-.79-.12-1.46-.12-2.03-.26.63-.66,1.16-1.18,1.59-.52.43-1.14.64-1.87.64h.01ZM234.33,177.8c.34,0,.69-.13,1.04-.39.35-.26.62-.53.81-.8l.42-3.95c-.05.02-.13.06-.22.12-.41.22-.72.38-.92.5-.2.11-.46.28-.78.5-.32.22-.55.43-.71.61-.16.19-.31.42-.45.71-.14.28-.23.59-.26.91-.02.13-.02.26-.02.37,0,.4.07.72.22.96.19.31.48.47.88.47h0Z"/>
    <path class="cls-1" d="M244.59,179.75l1.26-11.98h-1.67l.19-1.85h1.67l.09-.79c.05-.54.12-1.01.2-1.39s.2-.75.36-1.12c.16-.36.36-.65.59-.86s.54-.39.91-.51.81-.19,1.32-.19c.37,0,.9.05,1.61.14l-.2,1.85c-.06,0-.21-.03-.43-.06s-.39-.05-.5-.05c-.47,0-.79.15-.98.44-.18.29-.3.75-.37,1.36l-.14,1.2h2.13l-.19,1.85h-2.13l-1.26,11.98h-2.46v-.02Z"/>
    <path class="cls-1" d="M254,179.75l1.26-11.98h-1.67l.19-1.85h1.67l.09-.79c.05-.54.12-1.01.2-1.39s.2-.75.36-1.12c.16-.36.36-.65.59-.86s.54-.39.91-.51.81-.19,1.32-.19c.37,0,.9.05,1.61.14l-.2,1.85c-.06,0-.21-.03-.43-.06s-.39-.05-.5-.05c-.47,0-.79.15-.98.44-.18.29-.3.75-.37,1.36l-.14,1.2h2.13l-.19,1.85h-2.13l-1.26,11.98h-2.46v-.02Z"/>
    <path class="cls-1" d="M268.57,179.6c-.55.23-1.2.35-1.95.35s-1.37-.12-1.88-.36c-.5-.24-.87-.58-1.12-1.02-.24-.44-.41-.98-.48-1.61-.03-.27-.05-.56-.05-.86,0-.4.03-.82.08-1.26l.41-3.98c.18-1.67.62-2.95,1.31-3.82.7-.87,1.77-1.31,3.22-1.31.75,0,1.37.12,1.88.36s.88.58,1.13,1.03.41.98.49,1.61c.04.28.05.58.05.89,0,.39-.03.8-.08,1.24l-.42,3.98c-.09.82-.23,1.53-.43,2.13-.2.6-.47,1.14-.82,1.59-.35.46-.8.81-1.35,1.04h.01ZM266.28,178.02c.15.06.33.09.54.09s.4-.03.57-.1.31-.14.43-.23.22-.22.31-.4.16-.34.22-.47c.05-.14.11-.34.15-.6.05-.26.08-.47.1-.63.02-.16.04-.39.08-.69l.46-4.3c.03-.3.05-.53.06-.69s.02-.38.03-.64c0-.26,0-.46-.02-.6s-.06-.3-.12-.48c-.05-.18-.13-.31-.23-.4s-.22-.17-.37-.23c-.15-.07-.33-.1-.54-.1-.24,0-.46.04-.64.11-.19.07-.34.19-.47.36s-.23.33-.31.48c-.08.16-.15.38-.21.66s-.1.52-.13.72-.06.47-.09.81l-.46,4.3c-.03.3-.05.54-.06.69-.01.16-.02.37-.03.62s0,.46.02.6.06.3.12.48c.05.18.13.31.23.4s.22.17.37.23h0Z"/>
    <path class="cls-1" d="M276.04,179.75l1.45-13.83h2.48l-.2,1.96c1-1.42,2.09-2.14,3.28-2.14.04,0,.18,0,.41.02l-.29,2.73c-.4-.17-.83-.26-1.31-.26-.44,0-.83.1-1.19.29-.36.19-.72.55-1.09,1.05l-1.06,10.16h-2.48v.02Z"/>
    <path class="cls-1" d="M289.72,179.95h-.04c-1.18,0-1.99-.43-2.44-1.3-.31-.6-.47-1.47-.48-2.6,0-.52.04-1.1.11-1.74l.28-2.67c.07-.69.16-1.31.27-1.86.11-.54.26-1.08.47-1.6.2-.52.44-.96.72-1.3.28-.35.63-.62,1.06-.84s.92-.32,1.46-.32c.83,0,1.56.37,2.21,1.09l.67-6.42h2.48l-2.03,19.37h-2.48l.09-.89c-.75.72-1.53,1.09-2.35,1.09h0ZM290.55,178c.51,0,1.06-.19,1.67-.56l.96-9.11c-.54-.44-1.07-.65-1.59-.65-.3,0-.57.08-.79.23s-.41.37-.55.65c-.14.28-.25.6-.33.93-.08.34-.15.73-.19,1.19l-.41,3.84c-.05.61-.08,1.15-.08,1.62v.18c0,.51.12.92.33,1.23.21.3.54.46.99.46h-.01Z"/>
    <path class="cls-1" d="M302.46,179.95c-.79,0-1.41-.33-1.88-.97-.4-.54-.6-1.16-.6-1.85,0-.12,0-.25.02-.39.05-.47.15-.9.3-1.3.16-.4.31-.74.46-1.03.15-.28.41-.58.78-.88s.65-.53.85-.68c.2-.16.57-.36,1.12-.62.54-.26.92-.43,1.14-.53.22-.09.67-.27,1.34-.54.04-.02.07-.03.08-.04l.11-.99c.04-.38.06-.72.06-1,0-.42-.04-.75-.13-.98-.15-.39-.51-.58-1.07-.57-1,0-1.57.67-1.71,2l-.08.68-2.44-.09s.02-.12.04-.24c.02-.12.03-.21.04-.26.22-1.38.71-2.38,1.46-3.01.75-.63,1.77-.94,3.05-.94s2.24.35,2.74,1.09c.39.56.58,1.34.58,2.34,0,.3-.02.63-.06.98l-.67,6.37c-.09.8-.13,1.64-.13,2.51,0,.25,0,.5.01.75h-2.25c-.08-.79-.12-1.46-.12-2.03-.26.63-.66,1.16-1.18,1.59s-1.14.64-1.87.64h.01ZM303.66,177.8c.34,0,.69-.13,1.04-.39s.62-.53.81-.8l.42-3.95s-.13.06-.22.12c-.41.22-.72.38-.92.5-.2.11-.46.28-.78.5s-.55.43-.71.61c-.16.19-.31.42-.45.71-.14.28-.23.59-.26.91-.02.13-.02.26-.02.37,0,.4.07.72.22.96.19.31.48.47.88.47h-.01Z"/>
    <path class="cls-1" d="M317.93,179.95c-.83,0-1.57-.41-2.22-1.23l-.11,1.03h-2.48l2.03-19.37h2.48l-.69,6.63c.83-.86,1.75-1.3,2.76-1.3.45,0,.85.09,1.19.26s.61.41.79.72c.19.31.34.63.45.98.11.34.18.73.2,1.16.02.32.02.61.02.88v.26c0,.33-.03.66-.07,1l-.35,3.29c-.4,3.79-1.74,5.69-4.02,5.69h.02ZM317.65,178c.22,0,.41-.04.58-.12s.32-.21.44-.38.22-.36.31-.55.16-.46.22-.77.11-.61.15-.88.08-.61.12-1.02l.35-3.31c.05-.62.08-1.18.08-1.67s-.1-.88-.31-1.18c-.21-.3-.52-.44-.95-.44-.58,0-1.2.25-1.85.75l-.95,8.94c.52.43,1.12.64,1.8.64h.01Z"/>
    <path class="cls-1" d="M326.93,179.75l2.03-19.37h2.49l-2.03,19.37h-2.49Z"/>
    <path class="cls-1" d="M338.85,179.95c-.79,0-1.44-.12-1.95-.35s-.88-.58-1.13-1.04c-.25-.47-.4-1.04-.47-1.73-.02-.25-.03-.51-.02-.79,0-.49.03-1.02.09-1.6l.34-3.2c.1-.96.25-1.77.45-2.43.2-.66.48-1.23.84-1.71.36-.47.81-.82,1.36-1.05.55-.22,1.21-.33,1.98-.33.83,0,1.5.13,2,.4.5.27.85.66,1.06,1.17.19.51.31,1.14.34,1.89,0,.14.01.28.01.43,0,.63-.05,1.33-.14,2.1l-.13,1.13h-5.47l-.2,1.87c-.02.26-.04.46-.05.57-.01.12-.03.29-.04.51-.02.23-.02.39-.02.5s0,.25.01.43c0,.18.02.32.05.4.03.09.07.19.11.32.04.13.1.22.17.29.07.06.15.13.24.19.09.07.2.11.32.13s.26.04.42.04c.55,0,.96-.19,1.21-.57.26-.38.42-.96.5-1.74l.09-.85h2.42l-.07.56c-.3,2.96-1.75,4.44-4.33,4.44v.02ZM338.16,171.51h3.04l.12-1.25c.05-.44.07-.83.07-1.17,0-.11-.01-.21-.01-.3-.02-.4-.12-.71-.32-.92-.2-.21-.51-.32-.93-.32-.62,0-1.06.22-1.31.67-.25.44-.45,1.28-.58,2.52l-.07.77h-.01Z"/>
    <path class="cls-1" d="M361.39,184.3l.57-5.44c-.75.72-1.53,1.09-2.35,1.09h-.04c-1.18,0-2-.42-2.45-1.3-.31-.59-.47-1.45-.47-2.57,0-.53.04-1.12.11-1.78l.27-2.67c.07-.69.16-1.31.27-1.85.11-.54.27-1.07.47-1.6s.44-.96.72-1.31c.28-.35.63-.62,1.06-.84s.92-.32,1.46-.32c.83,0,1.57.37,2.2,1.09l.09-.89h2.48l-1.93,18.38h-2.48.02ZM360.43,178c.51,0,1.07-.19,1.68-.56l.95-9.11c-.52-.44-1.05-.65-1.59-.65-.3,0-.57.07-.79.22s-.4.37-.54.65c-.14.29-.25.6-.33.94s-.15.73-.19,1.19l-.41,3.84c-.05.61-.08,1.15-.08,1.62v.18c0,.51.12.92.33,1.23s.54.46.98.46h-.01Z"/>
    <path class="cls-1" d="M371.86,179.95c-.39,0-.71-.08-.97-.25s-.45-.38-.56-.65c-.11-.26-.19-.57-.24-.91-.02-.16-.04-.32-.04-.48,0-.19.02-.37.05-.56l1.17-11.18h2.48l-1.1,10.47c-.02.16-.02.31-.02.44,0,.33.05.58.14.77.13.26.41.4.84.4.54,0,1.18-.3,1.94-.91l1.17-11.17h2.48l-1.45,13.83h-2.48l.15-1.38c-1.21,1.05-2.39,1.58-3.55,1.58h-.01Z"/>
    <path class="cls-1" d="M385.77,179.95c-.79,0-1.41-.33-1.88-.97-.4-.54-.6-1.16-.6-1.85,0-.12,0-.25.02-.39.05-.47.15-.9.3-1.3.16-.4.31-.74.46-1.03.15-.28.41-.58.78-.88s.65-.53.85-.68c.2-.16.57-.36,1.12-.62.54-.26.92-.43,1.14-.53.22-.09.67-.27,1.34-.54.04-.02.07-.03.08-.04l.11-.99c.04-.38.06-.72.06-1,0-.42-.04-.75-.13-.98-.15-.39-.51-.58-1.07-.57-1,0-1.57.67-1.71,2l-.08.68-2.44-.09s.02-.12.04-.24c.02-.12.03-.21.04-.26.22-1.38.71-2.38,1.46-3.01.75-.63,1.77-.94,3.05-.94s2.24.35,2.74,1.09c.39.56.58,1.34.58,2.34,0,.3-.02.63-.06.98l-.67,6.37c-.09.8-.13,1.64-.13,2.51,0,.25,0,.5.01.75h-2.25c-.08-.79-.12-1.46-.12-2.03-.26.63-.66,1.16-1.18,1.59s-1.14.64-1.87.64h.01ZM386.97,177.8c.34,0,.69-.13,1.04-.39s.62-.53.81-.8l.42-3.95s-.13.06-.22.12c-.41.22-.72.38-.92.5-.2.11-.46.28-.78.5s-.55.43-.71.61c-.16.19-.31.42-.45.71-.14.28-.23.59-.26.91-.02.13-.02.26-.02.37,0,.4.07.72.22.96.19.31.48.47.88.47h-.01Z"/>
    <path class="cls-1" d="M396.64,179.75l2.03-19.37h2.49l-2.03,19.37h-2.49Z"/>
    <path class="cls-1" d="M404.96,179.75l1.45-13.83h2.48l-1.45,13.83h-2.48ZM406.63,163.89l.28-2.65h2.49l-.28,2.65h-2.49Z"/>
    <path class="cls-1" d="M416.78,179.94c-1.04,0-1.76-.27-2.15-.82-.31-.44-.47-1.04-.48-1.82,0-.2.01-.41.04-.63l.96-9.09h-1.47l.18-1.66h1.46l.43-4.05h2.48l-.43,4.05h2.23l-.16,1.66h-2.23l-.95,8.91c-.02.16-.02.3-.02.43,0,.35.05.61.16.77.15.23.47.34.96.34.38,0,.71-.02.97-.07l-.2,1.85c-.67.09-1.26.13-1.76.13h-.02Z"/>
    <path class="cls-1" d="M422.84,183.21l.2-1.88c.59,0,1.06-.02,1.41-.07s.62-.14.82-.27c.2-.14.33-.31.38-.51.03-.12.05-.26.05-.44,0-.12,0-.26-.02-.4-.07-.6-.15-1.23-.23-1.9l-1.55-11.81h2.51l.82,10.48,2.94-10.48h2.51l-4.85,14.61c-.33.97-.86,1.66-1.61,2.07-.74.4-1.76.61-3.04.61h-.34Z"/>
    <path class="cls-1" d="M447.27,179.95c-1.12,0-1.99-.35-2.59-1.06-.58-.68-.88-1.57-.88-2.66v-.18l2.13-.62c0,.92.14,1.6.4,2.03.26.44.68.65,1.24.65.47,0,.87-.15,1.2-.46.32-.31.5-.69.52-1.16,0-.05.01-.11.01-.15,0-.65-.32-1.28-.96-1.87l-2.1-1.97c-.52-.49-.9-.99-1.14-1.51-.17-.37-.26-.81-.26-1.3,0-.19.01-.38.04-.58.14-1.07.56-1.91,1.24-2.5.69-.59,1.57-.89,2.65-.89s1.83.33,2.36,1.02c.51.65.75,1.48.75,2.49v.14l-1.74.62c-.02-.79-.13-1.4-.36-1.81-.22-.41-.59-.62-1.1-.62-.44,0-.8.14-1.09.41-.29.28-.45.62-.49,1.02,0,.05-.01.11-.01.16,0,.5.2.94.6,1.32l2.17,2.2c.55.55.98,1.11,1.27,1.68.23.45.35.98.35,1.59,0,.16,0,.33-.02.49-.12,1.14-.55,2.02-1.3,2.62-.75.6-1.71.9-2.88.9h-.01Z"/>
    <path class="cls-1" d="M459.74,179.95c-.79,0-1.44-.12-1.95-.35s-.88-.58-1.13-1.04c-.25-.47-.4-1.04-.47-1.73-.02-.25-.03-.51-.02-.79,0-.49.03-1.02.09-1.6l.34-3.2c.1-.96.25-1.77.45-2.43.2-.66.48-1.23.84-1.71.36-.47.81-.82,1.36-1.05.55-.22,1.21-.33,1.98-.33.83,0,1.5.13,2,.4.5.27.85.66,1.06,1.17.19.51.31,1.14.34,1.89,0,.14.01.28.01.43,0,.63-.05,1.33-.14,2.1l-.13,1.13h-5.47l-.2,1.87c-.02.26-.04.46-.05.57-.01.12-.03.29-.04.51-.02.23-.02.39-.02.5s0,.25.01.43c0,.18.02.32.05.4.03.09.07.19.11.32.04.13.1.22.17.29.07.06.15.13.24.19.09.07.2.11.32.13s.26.04.42.04c.55,0,.96-.19,1.21-.57.26-.38.42-.96.5-1.74l.09-.85h2.42l-.07.56c-.3,2.96-1.75,4.44-4.33,4.44v.02ZM459.05,171.51h3.04l.12-1.25c.05-.44.07-.83.07-1.17,0-.11-.01-.21-.01-.3-.02-.4-.12-.71-.32-.92-.2-.21-.51-.32-.93-.32-.62,0-1.06.22-1.31.67-.25.44-.45,1.28-.58,2.52l-.07.77h-.01Z"/>
    <path class="cls-1" d="M469,179.75l1.45-13.83h2.48l-.2,1.96c1-1.42,2.09-2.14,3.28-2.14.04,0,.18,0,.41.02l-.29,2.73c-.4-.17-.83-.26-1.31-.26-.44,0-.83.1-1.19.29-.36.19-.72.55-1.09,1.05l-1.06,10.16h-2.48v.02Z"/>
    <path class="cls-1" d="M481.35,179.75l-1.31-13.83h2.49l.6,11.2,2.93-11.2h2.41l-4.09,13.83h-3.03Z"/>
    <path class="cls-1" d="M491.83,179.75l1.45-13.83h2.48l-1.45,13.83h-2.48ZM493.5,163.89l.28-2.65h2.49l-.28,2.65h-2.49Z"/>
    <path class="cls-1" d="M503.75,179.95c-.83,0-1.5-.13-2.01-.4-.52-.26-.89-.63-1.1-1.11-.22-.48-.35-1.06-.4-1.73-.02-.21-.02-.43-.02-.67,0-.49.04-1.02.12-1.59l.34-3.21c.1-.93.24-1.72.42-2.35.17-.63.43-1.2.77-1.71.34-.5.79-.87,1.34-1.11.56-.24,1.24-.36,2.05-.36.74,0,1.35.1,1.82.29.47.19.83.47,1.06.84s.38.82.44,1.37c.03.24.04.49.04.76,0,.35-.02.72-.07,1.12l-.09.81h-2.24l.09-.82c.04-.35.06-.66.06-.93,0-.45-.05-.79-.16-1.03-.17-.37-.54-.56-1.1-.56-.64,0-1.08.22-1.33.67s-.44,1.28-.56,2.52l-.46,4.32c-.05.5-.08.93-.08,1.28,0,.51.05.88.16,1.13.17.42.56.63,1.17.63.26,0,.48-.04.67-.12s.34-.19.46-.32.22-.31.3-.54.14-.46.18-.68.08-.5.12-.85l.12-1.07h2.24l-.09.92c-.08.74-.2,1.37-.37,1.9s-.42.99-.74,1.39c-.32.4-.74.7-1.26.9-.52.2-1.14.3-1.86.3h-.03Z"/>
    <path class="cls-1" d="M516.54,179.95c-.79,0-1.44-.12-1.95-.35s-.88-.58-1.13-1.04c-.25-.47-.4-1.04-.47-1.73-.02-.25-.03-.51-.02-.79,0-.49.03-1.02.09-1.6l.34-3.2c.1-.96.25-1.77.45-2.43.2-.66.48-1.23.84-1.71.36-.47.81-.82,1.36-1.05.55-.22,1.21-.33,1.98-.33.83,0,1.5.13,2,.4.5.27.85.66,1.06,1.17.19.51.31,1.14.34,1.89,0,.14.01.28.01.43,0,.63-.05,1.33-.14,2.1l-.13,1.13h-5.47l-.2,1.87c-.02.26-.04.46-.05.57-.01.12-.03.29-.04.51-.02.23-.02.39-.02.5s0,.25.01.43c0,.18.02.32.05.4.03.09.07.19.11.32s.1.22.17.29c.07.06.15.13.24.19.09.07.2.11.32.13s.26.04.42.04c.55,0,.96-.19,1.21-.57.26-.38.42-.96.5-1.74l.09-.85h2.42l-.07.56c-.3,2.96-1.75,4.44-4.33,4.44v.02ZM515.85,171.51h3.04l.12-1.25c.05-.44.07-.83.07-1.17,0-.11-.01-.21-.01-.3-.02-.4-.12-.71-.32-.92-.2-.21-.51-.32-.93-.32-.62,0-1.06.22-1.31.67-.25.44-.45,1.28-.58,2.52l-.07.77h0Z"/>
  </g>
</svg>